<svg xmlns="http://www.w3.org/2000/svg" width="20" height="20" viewBox="0 0 20 20" fill="none">
  <path d="M15.8333 3.33334H4.16666C3.50362 3.33334 2.86773 3.59674 2.39889 4.06558C1.93005 4.53442 1.66666 5.1703 1.66666 5.83334V14.1667C1.66666 14.8297 1.93005 15.4656 2.39889 15.9344C2.86773 16.4033 3.50362 16.6667 4.16666 16.6667H15.8333C16.4964 16.6667 17.1322 16.4033 17.6011 15.9344C18.0699 15.4656 18.3333 14.8297 18.3333 14.1667V5.83334C18.3333 5.1703 18.0699 4.53442 17.6011 4.06558C17.1322 3.59674 16.4964 3.33334 15.8333 3.33334ZM4.16666 5.00001H15.8333C16.0543 5.00001 16.2663 5.08781 16.4226 5.24409C16.5789 5.40037 16.6667 5.61233 16.6667 5.83334L9.99999 9.90001L3.33332 5.83334C3.33332 5.61233 3.42112 5.40037 3.5774 5.24409C3.73368 5.08781 3.94564 5.00001 4.16666 5.00001ZM16.6667 14.1667C16.6667 14.3877 16.5789 14.5997 16.4226 14.7559C16.2663 14.9122 16.0543 15 15.8333 15H4.16666C3.94564 15 3.73368 14.9122 3.5774 14.7559C3.42112 14.5997 3.33332 14.3877 3.33332 14.1667V7.73334L9.56666 11.5417C9.69334 11.6148 9.83704 11.6533 9.98332 11.6533C10.1296 11.6533 10.2733 11.6148 10.4 11.5417L16.6667 7.73334V14.1667Z" fill="#B3B3B3"/>

</svg>